<svg width="20" height="16" viewBox="0 0 20 16" fill="none" xmlns="http://www.w3.org/2000/svg">
<path d="M14.9062 7.08044C16.0688 6.91711 16.9638 5.92044 16.9663 4.71294C16.9663 3.52294 16.0988 2.53628 14.9613 2.34961" stroke="#939393" stroke-width="1.5" stroke-linecap="round" stroke-linejoin="round"/>
<path d="M16.4404 9.875C17.5663 10.0433 18.3521 10.4375 18.3521 11.25C18.3521 11.8092 17.9821 12.1725 17.3838 12.4008" stroke="#939393" stroke-width="1.5" stroke-linecap="round" stroke-linejoin="round"/>
<path fill-rule="evenodd" clip-rule="evenodd" d="M9.90529 10.2197C7.22695 10.2197 4.93945 10.6256 4.93945 12.2464C4.93945 13.8664 7.21279 14.2839 9.90529 14.2839C12.5836 14.2839 14.8703 13.8822 14.8703 12.2606C14.8703 10.6389 12.5978 10.2197 9.90529 10.2197Z" stroke="#939393" stroke-width="1.5" stroke-linecap="round" stroke-linejoin="round"/>
<path fill-rule="evenodd" clip-rule="evenodd" d="M9.90518 7.9065C11.6627 7.9065 13.0877 6.48234 13.0877 4.724C13.0877 2.9665 11.6627 1.5415 9.90518 1.5415C8.14768 1.5415 6.72268 2.9665 6.72268 4.724C6.71601 6.47567 8.13018 7.90067 9.88185 7.9065H9.90518Z" stroke="#939393" stroke-width="1.5" stroke-linecap="round" stroke-linejoin="round"/>
<path d="M4.90375 7.08044C3.74042 6.91711 2.84625 5.92044 2.84375 4.71294C2.84375 3.52294 3.71125 2.53628 4.84875 2.34961" stroke="#939393" stroke-width="1.5" stroke-linecap="round" stroke-linejoin="round"/>
<path d="M3.36967 9.875C2.24384 10.0433 1.45801 10.4375 1.45801 11.25C1.45801 11.8092 1.82801 12.1725 2.42634 12.4008" stroke="#939393" stroke-width="1.5" stroke-linecap="round" stroke-linejoin="round"/>
</svg>
